<svg width="90" height="90" viewBox="0 0 90 90" fill="none" xmlns="http://www.w3.org/2000/svg">
<path d="M78.125 18.5C72.4599 16.988 66.9254 15.0234 61.575 12.625C56.3111 10.3415 51.2296 7.65871 46.375 4.6L45 3.75L43.65 4.625C38.7954 7.68371 33.7139 10.3665 28.45 12.65C23.0907 15.0411 17.5479 16.9974 11.875 18.5L10 18.975V39.825C10 73.3 43.825 85.825 44.15 85.95L45 86.25L45.85 85.95C46.2 85.95 80 73.325 80 39.825V18.975L78.125 18.5ZM75 39.825C75 67.325 50 78.85 45 80.9C40 78.85 15 67.3 15 39.825V22.85C20.2737 21.3339 25.436 19.4544 30.45 17.225C35.4643 15.0575 40.3255 12.5517 45 9.725C49.6745 12.5517 54.5357 15.0575 59.55 17.225C64.564 19.4544 69.7263 21.3339 75 22.85V39.825Z" fill="black"/>
<path d="M27.1999 42.175C26.7216 41.7654 26.1064 41.5514 25.4772 41.5757C24.8481 41.6 24.2512 41.8608 23.806 42.3061C23.3607 42.7513 23.0999 43.3482 23.0756 43.9773C23.0513 44.6065 23.2653 45.2217 23.6749 45.7L38.6749 60.7L65.9999 34.425C66.4773 33.9609 66.7507 33.3261 66.7601 32.6603C66.7695 31.9946 66.514 31.3524 66.0499 30.875C65.5858 30.3976 64.951 30.1241 64.2852 30.1148C63.6195 30.1054 62.9773 30.3609 62.4999 30.825L38.8249 53.8L27.1999 42.175Z" fill="black"/>
</svg>
