<svg width="90" height="90" viewBox="0 0 90 90" fill="none" xmlns="http://www.w3.org/2000/svg">
<path fill-rule="evenodd" clip-rule="evenodd" d="M13.125 30.0001C13.1257 26.4448 14.0455 22.95 15.795 19.855C17.5446 16.7599 20.0645 14.1697 23.1102 12.3356C26.156 10.5015 29.6241 9.48591 33.1781 9.38733C36.732 9.28874 40.2511 10.1105 43.3938 11.7729C46.5366 13.4353 49.1962 15.8819 51.1146 18.8752C53.0331 21.8685 54.1452 25.3069 54.343 28.8567C54.5409 32.4065 53.8177 35.9472 52.2438 39.1351C50.6698 42.3231 48.2985 45.05 45.36 47.0513C51.6881 49.3724 57.1769 53.534 61.1199 59.0008C65.0629 64.4675 67.2797 70.9891 67.485 77.7263C67.4961 78.0957 67.4343 78.4636 67.3032 78.8091C67.1721 79.1545 66.9742 79.4708 66.7209 79.7398C66.2093 80.2831 65.5028 80.6008 64.7569 80.6232C64.0109 80.6456 63.2867 80.3708 62.7434 79.8591C62.2001 79.3475 61.8824 78.641 61.86 77.8951C61.6367 70.5881 58.577 63.6551 53.3294 58.5654C48.0817 53.4757 41.0586 50.6292 33.7481 50.6292C26.4377 50.6292 19.4145 53.4757 14.1668 58.5654C8.9192 63.6551 5.85954 70.5881 5.63622 77.8951C5.59868 78.6295 5.27501 79.3199 4.73457 79.8186C4.19413 80.3172 3.47989 80.5844 2.74487 80.5628C2.00986 80.5412 1.31252 80.2326 0.802253 79.7031C0.291988 79.1737 0.00938044 78.4654 0.0149741 77.7301C0.219542 70.9922 2.436 64.4698 6.37905 59.0023C10.3221 53.5348 15.8113 49.3726 22.14 47.0513C19.3601 45.1605 17.0853 42.618 15.5139 39.6458C13.9425 36.6737 13.1223 33.3621 13.125 30.0001ZM33.75 15.0001C29.7717 15.0001 25.9564 16.5804 23.1434 19.3935C20.3303 22.2065 18.75 26.0218 18.75 30.0001C18.75 33.9783 20.3303 37.7937 23.1434 40.6067C25.9564 43.4197 29.7717 45.0001 33.75 45.0001C37.7282 45.0001 41.5435 43.4197 44.3566 40.6067C47.1696 37.7937 48.75 33.9783 48.75 30.0001C48.75 26.0218 47.1696 22.2065 44.3566 19.3935C41.5435 16.5804 37.7282 15.0001 33.75 15.0001Z" fill="black"/>
<path d="M64.8376 29.9999C64.2826 29.9999 63.7426 30.0374 63.2101 30.1124C62.8383 30.179 62.4569 30.17 62.0887 30.086C61.7204 30.0019 61.3729 29.8446 61.0668 29.6233C60.7607 29.4021 60.5023 29.1215 60.307 28.7982C60.1117 28.4749 59.9835 28.1156 59.9301 27.7417C59.8767 27.3678 59.8992 26.987 59.9961 26.6219C60.0931 26.2569 60.2626 25.9151 60.4945 25.617C60.7264 25.3189 61.016 25.0705 61.3459 24.8868C61.6759 24.703 62.0395 24.5876 62.4151 24.5474C66.1447 24.0082 69.9478 24.7244 73.2258 26.5834C76.5038 28.4423 79.0707 31.3385 80.5223 34.8161C81.974 38.2937 82.2282 42.1553 81.2447 45.7932C80.2613 49.431 78.0962 52.6386 75.0901 54.9111C79.509 56.8898 83.261 60.1049 85.8934 64.1685C88.5257 68.2322 89.9259 72.9707 89.9251 77.8124C89.9251 78.5583 89.6288 79.2737 89.1013 79.8011C88.5739 80.3286 87.8585 80.6249 87.1126 80.6249C86.3667 80.6249 85.6513 80.3286 85.1238 79.8011C84.5964 79.2737 84.3001 78.5583 84.3001 77.8124C84.2996 73.6279 82.9514 69.5549 80.455 66.1967C77.9586 62.8385 74.4469 60.3737 70.4401 59.1674L68.4376 58.5674V52.2824L69.9751 51.4986C72.2542 50.3442 74.0777 48.4553 75.1512 46.1371C76.2248 43.8188 76.4857 41.2063 75.8919 38.7215C75.2981 36.2367 73.8843 34.0244 71.8786 32.442C69.8729 30.8595 67.3924 29.9992 64.8376 29.9999Z" fill="black"/>
</svg>
