<svg width="72" height="72" viewBox="0 0 72 72" fill="none" xmlns="http://www.w3.org/2000/svg">
<path d="M36 0C45.5478 0 54.7045 3.79285 61.4558 10.5442C68.2072 17.2955 72 26.4522 72 36C72 45.5478 68.2072 54.7045 61.4558 61.4558C54.7045 68.2072 45.5478 72 36 72C26.4522 72 17.2955 68.2072 10.5442 61.4558C3.79285 54.7045 0 45.5478 0 36C0 26.4522 3.79285 17.2955 10.5442 10.5442C17.2955 3.79285 26.4522 0 36 0ZM36 4.5C31.8634 4.5 27.7672 5.31477 23.9455 6.8978C20.1237 8.48082 16.6512 10.8011 13.7261 13.7261C10.8011 16.6512 8.48082 20.1237 6.89779 23.9455C5.31477 27.7672 4.5 31.8634 4.5 36C4.5 40.1366 5.31477 44.2328 6.89779 48.0545C8.48082 51.8763 10.8011 55.3488 13.7261 58.2739C16.6512 61.1989 20.1237 63.5192 23.9455 65.1022C27.7672 66.6852 31.8634 67.5 36 67.5C44.3543 67.5 52.3665 64.1813 58.2739 58.2739C64.1813 52.3665 67.5 44.3543 67.5 36C67.5 27.6457 64.1813 19.6335 58.2739 13.7261C52.3665 7.81874 44.3543 4.5 36 4.5ZM51.111 25.407C51.4837 25.7793 51.714 26.2706 51.7617 26.7952C51.8094 27.3199 51.6715 27.8446 51.372 28.278L51.111 28.593L33.093 46.611C32.7207 46.9837 32.2294 47.214 31.7048 47.2617C31.1801 47.3094 30.6554 47.1715 30.222 46.872L29.907 46.611L20.907 37.611C20.5084 37.2141 20.2728 36.6824 20.2468 36.1205C20.2208 35.5586 20.4062 35.0074 20.7665 34.5754C21.1268 34.1434 21.6358 33.862 22.1932 33.7867C22.7506 33.7114 23.316 33.8476 23.778 34.1685L24.093 34.4295L31.5 41.841L47.9295 25.407C48.3514 24.9852 48.9236 24.7482 49.5203 24.7482C50.1169 24.7482 50.6891 24.9852 51.111 25.407Z" fill="black"/>
</svg>
