<svg width="87" height="63" viewBox="0 0 87 63" fill="none" xmlns="http://www.w3.org/2000/svg">
<path d="M86.0178 21.4665L77.4045 3.94704C76.804 2.73465 75.781 1.81862 74.5531 1.39394C73.3252 0.969264 71.9895 1.06947 70.8303 1.67323L62.4983 6.10902H56.4162L44.674 0.480417C43.6074 -0.0527344 42.3917 -0.145752 41.2639 0.219488L23.8967 5.58716L15.7756 1.2632C14.6149 0.669069 13.2824 0.573955 12.0571 0.997766C10.8317 1.42158 9.80843 2.33146 9.20139 3.53701L0.588111 21.0938C0.275191 21.7047 0.0823226 22.3766 0.0211557 23.0688C-0.0400112 23.761 0.0317931 24.4591 0.232231 25.1211C0.432669 25.783 0.757581 26.395 1.18734 26.9201C1.6171 27.4452 2.14278 27.8725 2.73264 28.1761L11.2405 32.6865L30.2951 48.454C30.8263 48.9214 31.4518 49.2531 32.1233 49.4232L52.5139 54.8281C52.8925 54.9328 53.2828 54.9829 53.674 54.9772C54.9787 54.9732 56.2292 54.4241 57.1545 53.4489L70.092 39.7315H70.2326L75.5764 32.9847L83.8733 28.5861C84.4613 28.2707 84.9847 27.8349 85.4131 27.3039C85.8415 26.7728 86.1665 26.1571 86.3694 25.4923C86.5663 24.8302 86.6366 24.1331 86.5762 23.4418C86.5158 22.7506 86.326 22.079 86.0178 21.4665ZM68.2639 35.1094L54.3772 24.4113C54.0115 24.135 53.5723 23.9897 53.1234 23.9964C52.6744 24.0031 52.2392 24.1615 51.8811 24.4486L47.3811 28.027C45.7966 29.2795 43.8731 29.9561 41.8967 29.9561C39.9203 29.9561 37.9968 29.2795 36.4123 28.027L34.5139 26.4987C34.4249 26.4399 34.352 26.3573 34.3026 26.2591C34.2533 26.161 34.2291 26.0508 34.2326 25.9396C34.2243 25.8354 34.239 25.7306 34.2756 25.6335C34.3123 25.5364 34.3698 25.4498 34.4436 25.3805L48.1897 10.7685C48.331 10.6527 48.5033 10.5874 48.6819 10.5821H61.7248L71.7092 30.86L68.2639 35.1094ZM4.27952 23.7403C4.24152 23.6448 4.22492 23.5412 4.23102 23.4377C4.23712 23.3343 4.26575 23.2337 4.31467 23.1439L12.9631 5.58716C13.0268 5.47003 13.1193 5.37346 13.2308 5.3078C13.3423 5.24214 13.4685 5.20986 13.5959 5.21441C13.6952 5.19965 13.7961 5.22638 13.8772 5.28896L20.7678 8.90468L11.4514 27.8034L4.63108 24.1504C4.54702 24.1147 4.47169 24.0593 4.41079 23.9883C4.34988 23.9172 4.305 23.8324 4.27952 23.7403ZM54.2014 50.2805C54.1146 50.3699 54.0075 50.434 53.8905 50.4666C53.7735 50.4993 53.6505 50.4994 53.5334 50.4669L33.1428 45.0992L32.8967 44.9501L15.0373 30.1517L25.0217 9.87385L42.4592 4.50617C42.6229 4.46392 42.795 4.47695 42.9514 4.54345L46.924 6.4445C46.2784 6.71194 45.6919 7.11804 45.2014 7.63731L31.4553 22.212C30.9512 22.7377 30.5607 23.373 30.3107 24.0743C30.0607 24.7755 29.9572 25.5259 30.0074 26.2736C30.0575 27.0214 30.2601 27.7487 30.6011 28.4054C30.9421 29.062 31.4135 29.6324 31.9826 30.0772L33.8811 31.6055C36.2025 33.4217 39.0117 34.4017 41.8967 34.4017C44.7817 34.4017 47.5909 33.4217 49.9123 31.6055L53.1819 28.9962L65.3811 38.4269L54.2014 50.2805ZM82.3264 24.1131C82.3032 24.2109 82.2596 24.3018 82.1988 24.3793C82.1379 24.4567 82.0614 24.5186 81.9748 24.5604L75.1545 28.1761L65.8381 9.31471L72.7287 5.66171C72.8926 5.583 73.0788 5.57392 73.2488 5.63632C73.4189 5.69873 73.5599 5.82788 73.6428 5.99719L82.2912 23.554C82.3398 23.637 82.3685 23.7314 82.3746 23.8289C82.3807 23.9264 82.3642 24.024 82.3264 24.1131ZM39.717 61.0531C39.6015 61.5364 39.3393 61.9661 38.9708 62.2759C38.6024 62.5857 38.1481 62.7586 37.678 62.7678L37.1506 62.6932L26.5686 59.8603C25.8128 59.6701 25.1127 59.2861 24.5295 58.742L16.6194 51.436C16.3713 51.2594 16.1614 51.0289 16.0037 50.7598C15.8459 50.4908 15.7439 50.1892 15.7044 49.8752C15.6649 49.5611 15.6887 49.2417 15.7744 48.9382C15.86 48.6347 16.0055 48.3539 16.2012 48.1145C16.3969 47.875 16.6383 47.6824 16.9095 47.5494C17.1807 47.4164 17.4755 47.346 17.7743 47.3428C18.0731 47.3397 18.3691 47.4039 18.6428 47.5312C18.9164 47.6585 19.1614 47.846 19.3615 48.0812L27.3069 55.3872C27.3888 55.4588 27.4849 55.5098 27.5881 55.5363L38.2053 58.332C38.7456 58.4811 39.2082 58.8512 39.4915 59.3613C39.7749 59.8714 39.856 60.4798 39.717 61.0531Z" fill="black"/>
</svg>
